<svg width="14" height="13" viewBox="0 0 14 13" fill="none" xmlns="http://www.w3.org/2000/svg">
<path d="M8.41 6.00409L12.71 1.71409C12.8983 1.52579 13.0041 1.27039 13.0041 1.00409C13.0041 0.73779 12.8983 0.482395 12.71 0.294092C12.5217 0.105788 12.2663 0 12 0C11.7337 0 11.4783 0.105788 11.29 0.294092L7 4.59409L2.71 0.294092C2.5217 0.105788 2.2663 -1.9841e-09 2 0C1.7337 1.9841e-09 1.4783 0.105788 1.29 0.294092C1.1017 0.482395 0.995908 0.73779 0.995908 1.00409C0.995908 1.27039 1.1017 1.52579 1.29 1.71409L5.59 6.00409L1.29 10.2941C1.19627 10.3871 1.12188 10.4977 1.07111 10.6195C1.02034 10.7414 0.994202 10.8721 0.994202 11.0041C0.994202 11.1361 1.02034 11.2668 1.07111 11.3887C1.12188 11.5105 1.19627 11.6211 1.29 11.7141C1.38296 11.8078 1.49356 11.8822 1.61542 11.933C1.73728 11.9838 1.86799 12.0099 2 12.0099C2.13201 12.0099 2.26272 11.9838 2.38458 11.933C2.50644 11.8822 2.61704 11.8078 2.71 11.7141L7 7.41409L11.29 11.7141C11.383 11.8078 11.4936 11.8822 11.6154 11.933C11.7373 11.9838 11.868 12.0099 12 12.0099C12.132 12.0099 12.2627 11.9838 12.3846 11.933C12.5064 11.8822 12.617 11.8078 12.71 11.7141C12.8037 11.6211 12.8781 11.5105 12.9289 11.3887C12.9797 11.2668 13.0058 11.1361 13.0058 11.0041C13.0058 10.8721 12.9797 10.7414 12.9289 10.6195C12.8781 10.4977 12.8037 10.3871 12.71 10.2941L8.41 6.00409Z" fill="black"/>
</svg>
