<svg width="320" height="72" viewBox="0 0 320 72" fill="none" xmlns="http://www.w3.org/2000/svg">
<path fill-rule="evenodd" clip-rule="evenodd" d="M22.427 56.4789C26.911 56.5285 31.392 56.2285 35.8294 55.5817V33.4313H19.7915V36.235H27.8665V53.2827C26.4086 53.3948 24.8385 53.4509 23.3241 53.4509C12.6136 53.4509 9.19269 49.1889 9.19269 35.3378C9.19269 21.5412 12.2211 17.2812 24.4456 17.2812C27.8202 17.3192 31.19 17.5438 34.5397 17.9541V15.4308C30.5196 14.742 26.4496 14.3856 22.3709 14.365C8.85665 14.365 0.556885 20.4214 0.556885 35.3939C0.556885 51.0393 8.79895 56.4789 22.427 56.4789ZM55.662 56.535C64.9146 56.535 69.9055 51.0954 69.9055 42.5157C69.9055 33.936 64.8585 28.4403 55.662 28.4403C46.4655 28.4403 41.4745 33.936 41.4745 42.5157C41.4741 51.2076 46.3533 56.535 55.662 56.535ZM55.662 53.8995C51.1757 53.8995 49.6056 50.3665 49.6056 42.5157C49.6056 34.6089 51.1757 31.1323 55.662 31.1323C60.1483 31.1323 61.7184 34.6089 61.7184 42.5157C61.718 50.3665 60.1475 53.8995 55.662 53.8995ZM75.3827 56.0864H83.4582V32.7024C85.7514 32.0223 88.132 31.6825 90.5239 31.6938C91.5324 31.6938 92.541 31.6938 93.4962 31.7499V29.1681C92.446 28.9338 91.3754 28.8023 90.2996 28.7756C87.2716 28.7756 84.8044 29.4485 82.8975 31.0189V28.8877H75.382L75.3827 56.0864ZM103.174 56.535C106.426 56.535 109.064 55.6939 110.8 54.5179V56.0864H118.371V37.4126C118.371 30.8519 114.109 28.6086 105.417 28.6086C102.427 28.6449 99.4452 28.9262 96.5014 29.4497V31.8612C98.8429 31.5375 101.203 31.3689 103.567 31.3566C108.166 31.3566 110.745 32.0856 110.745 36.7958V39.8242H103.79C96.6119 39.8242 93.1349 42.6279 93.1349 48.2356C93.1349 53.1145 96.3876 56.535 103.173 56.535H103.174ZM106.09 53.7313C102.276 53.7313 101.043 52.1608 101.043 47.8415C101.043 43.6356 102.276 42.0655 106.258 42.0655H110.744V52.9446C109.251 53.4788 107.676 53.7451 106.09 53.7313ZM124.576 56.0864H132.651V14.7014H124.576V56.0864ZM153.813 56.3688C156.809 56.4074 159.8 56.1064 162.729 55.4716V53.0604C160.323 53.4905 157.882 53.697 155.438 53.6772C148.148 53.6772 145.849 51.9946 145.681 43.9756H164.02C164.124 43.3083 164.18 42.6341 164.185 41.9586C164.185 32.7609 159.308 28.4444 151.176 28.4444C143.662 28.4444 137.774 32.9307 137.774 42.4637C137.775 53.507 144.336 56.3688 153.813 56.3688ZM151.234 31.1343C155.608 31.1343 156.505 33.8259 156.674 41.4523H145.682C145.794 33.7678 147.084 31.1323 151.234 31.1323V31.1343ZM183.801 56.0864H192.494L182.458 41.226L192.155 28.8889H188.121L180.606 38.4784L174.212 28.8889H165.409L175.055 43.1886L165.018 56.0864H168.996L176.959 45.9927L183.801 56.0864Z" fill="white"/>
<path d="M248.674 16L237.127 36L248.674 56H234.217C232.252 56 230.436 54.9517 229.454 53.25L219.494 36L229.454 18.75C230.436 17.0483 232.252 16 234.217 16H248.674Z" fill="white"/>
<path d="M295.461 25H270.034C267.891 25 265.91 26.1434 264.838 27.9997L256.032 43.2499C255.07 44.9165 256.273 47 258.197 47H272.367L275.98 40.75H265.871L269.62 34.2517C270.513 32.7037 272.164 31.75 273.951 31.75H299.358L295.461 25Z" fill="white"/>
<path d="M290.265 16L301.812 36L290.265 56H304.721C306.686 56 308.501 54.9517 309.484 53.25L319.443 36L309.484 18.75C308.501 17.0483 306.686 16 304.721 16H290.265Z" fill="white"/>
<path d="M254.758 72C256.723 72 258.539 70.9517 259.521 69.25L267.171 56H248.677L239.439 72H254.758Z" fill="white"/>
<path d="M290.269 16H271.775L279.425 2.75C280.407 1.0483 282.223 0 284.188 0H299.506L290.269 16Z" fill="white"/>
</svg>
