<svg width="336" height="72" viewBox="0 0 336 72" fill="none" xmlns="http://www.w3.org/2000/svg">
<path fill-rule="evenodd" clip-rule="evenodd" d="M22.6647 56.4789C27.1487 56.5285 31.6298 56.2285 36.0672 55.5817V33.4313H20.0292V36.235H28.1043V53.2827C26.6463 53.3948 25.0763 53.4509 23.5619 53.4509C12.8513 53.4509 9.43048 49.1889 9.43048 35.3378C9.43048 21.5412 12.4588 17.2812 24.6834 17.2812C28.0579 17.3192 31.4277 17.5438 34.7775 17.9541V15.4308C30.7573 14.742 26.6873 14.3856 22.6086 14.365C9.09444 14.365 0.794678 20.4214 0.794678 35.3939C0.794678 51.0393 9.03674 56.4789 22.6647 56.4789ZM55.8997 56.535C65.1523 56.535 70.1433 51.0954 70.1433 42.5157C70.1433 33.936 65.0962 28.4403 55.8997 28.4403C46.7032 28.4403 41.7122 33.936 41.7122 42.5157C41.7118 51.2076 46.591 56.535 55.8997 56.535ZM55.8997 53.8995C51.4134 53.8995 49.8433 50.3665 49.8433 42.5157C49.8433 34.6089 51.4134 31.1323 55.8997 31.1323C60.386 31.1323 61.9561 34.6089 61.9561 42.5157C61.9557 50.3665 60.3852 53.8995 55.8997 53.8995ZM75.6205 56.0864H83.6959V32.7024C85.9892 32.0223 88.3698 31.6825 90.7617 31.6938C91.7702 31.6938 92.7787 31.6938 93.734 31.7499V29.1681C92.6837 28.9338 91.6131 28.8023 90.5373 28.7756C87.5094 28.7756 85.0421 29.4485 83.1352 31.0189V28.8877H75.6197L75.6205 56.0864ZM103.412 56.535C106.664 56.535 109.301 55.6939 111.038 54.5179V56.0864H118.608V37.4126C118.608 30.8519 114.346 28.6086 105.654 28.6086C102.665 28.6449 99.683 28.9262 96.7391 29.4497V31.8612C99.0807 31.5375 101.441 31.3689 103.805 31.3566C108.404 31.3566 110.983 32.0856 110.983 36.7958V39.8242H104.028C96.8497 39.8242 93.3727 42.6279 93.3727 48.2356C93.3727 53.1145 96.6264 56.535 103.412 56.535ZM106.327 53.7313C102.514 53.7313 101.28 52.1608 101.28 47.8415C101.28 43.6356 102.514 42.0655 106.496 42.0655H110.982V52.9446C109.489 53.4788 107.913 53.7451 106.327 53.7313ZM124.813 56.0864H132.888V14.7014H124.813V56.0864ZM154.051 56.3688C157.047 56.4074 160.038 56.1064 162.966 55.4716V53.0604C160.561 53.4905 158.12 53.697 155.676 53.6772C148.386 53.6772 146.087 51.9946 145.918 43.9756H164.257C164.362 43.3083 164.417 42.6341 164.423 41.9586C164.423 32.7609 159.546 28.4444 151.414 28.4444C143.9 28.4444 138.012 32.9307 138.012 42.4637C138.013 53.507 144.574 56.3688 154.051 56.3688ZM151.472 31.1343C155.846 31.1343 156.743 33.8259 156.911 41.4523H145.92C146.032 33.7678 147.322 31.1323 151.472 31.1323V31.1343ZM184.039 56.0864H192.732L182.695 41.226L192.393 28.8889H188.359L180.844 38.4784L174.45 28.8889H165.647L175.293 43.1886L165.256 56.0864H169.233L177.197 45.9927L184.039 56.0864Z" fill="black"/>
<path d="M254.373 16L242.826 36L254.373 56H234.455C232.49 56 230.674 54.9517 229.691 53.25L219.732 36L229.691 18.75C230.674 17.0483 232.49 16 234.455 16H254.373Z" fill="black"/>
<path d="M254.373 16L242.826 36L254.373 56H234.455C232.49 56 230.674 54.9517 229.691 53.25L219.732 36L229.691 18.75C230.674 17.0483 232.49 16 234.455 16H254.373Z" fill="black"/>
<path d="M305.183 24H276.311C274.167 24 272.186 25.1436 271.114 27L261.155 44.25C260.193 45.9167 261.396 48 263.32 48H282.09L286.709 40H275.152L278.328 34.5C279.221 32.953 280.872 32 282.658 32H309.802L305.183 24Z" fill="black"/>
<path d="M305.183 24H276.311C274.167 24 272.186 25.1436 271.114 27L261.155 44.25C260.193 45.9167 261.396 48 263.32 48H282.09L286.709 40H275.152L278.328 34.5C279.221 32.953 280.872 32 282.658 32H309.802L305.183 24Z" fill="black"/>
<path d="M300.564 16L312.111 36L300.564 56H320.483C322.448 56 324.264 54.9517 325.246 53.25L335.205 36L325.246 18.75C324.264 17.0483 322.448 16 320.483 16H300.564Z" fill="black"/>
<path d="M300.564 16L312.111 36L300.564 56H320.483C322.448 56 324.264 54.9517 325.246 53.25L335.205 36L325.246 18.75C324.264 17.0483 322.448 16 320.483 16H300.564Z" fill="black"/>
<path d="M265.057 72C267.022 72 268.838 70.9517 269.82 69.25L277.47 56H254.376L245.138 72H265.057Z" fill="black"/>
<path d="M265.057 72C267.022 72 268.838 70.9517 269.82 69.25L277.47 56H254.376L245.138 72H265.057Z" fill="black"/>
<path d="M300.568 16H277.474L285.124 2.75C286.106 1.04829 287.922 0 289.887 0H309.806L300.568 16Z" fill="black"/>
<path d="M300.568 16H277.474L285.124 2.75C286.106 1.04829 287.922 0 289.887 0H309.806L300.568 16Z" fill="black"/>
</svg>
